HIERARCHY
ROOT Hips
{
    OFFSET   0.000000   0.000000   0.000000
    CHANNELS 6 Xposition Yposition Zposition Zrotation Xrotation Yrotation
    JOINT Chest
    {
        OFFSET   0.000000   8.007230   0.000000
        CHANNELS 3 Zrotation Xrotation Yrotation
        JOINT Chest2
        {
            OFFSET   0.000000  22.077100   0.000000
            CHANNELS 3 Zrotation Xrotation Yrotation
            JOINT Neck
            {
                OFFSET   0.000000  23.254800  -0.000021
                CHANNELS 3 Zrotation Xrotation Yrotation
                JOINT Head
                {
                    OFFSET   0.000000  14.370000   1.956610
                    CHANNELS 3 Zrotation Xrotation Yrotation
                    End Site
                    {
                        OFFSET   0.000000  19.566000   0.000000
                    }
                }
            }
            JOINT LeftCollar
            {
                OFFSET   3.911900  19.017000  -0.467063
                CHANNELS 3 Zrotation Xrotation Yrotation
                JOINT LeftShoulder
                {
                    OFFSET  10.383700   0.000000   0.000000
                    CHANNELS 3 Zrotation Xrotation Yrotation
                    JOINT LeftElbow
                    {
                        OFFSET  26.662100   0.001529   0.000325
                        CHANNELS 3 Zrotation Xrotation Yrotation
                        JOINT LeftWrist
                        {
                            OFFSET  28.869000  -0.000011  -0.000096
                            CHANNELS 3 Zrotation Xrotation Yrotation
                            JOINT LeftFinger0
                            {
                                OFFSET   2.044650  -2.323460   3.252850
                                CHANNELS 3 Zrotation Xrotation Yrotation
                                JOINT LeftFinger01
                                {
                                    OFFSET   3.088130   0.000000   0.000000
                                    CHANNELS 3 Zrotation Xrotation Yrotation
                                    JOINT LeftFinger02
                                    {
                                        OFFSET   2.639460   0.000000   0.000000
                                        CHANNELS 3 Zrotation Xrotation Yrotation
                                        End Site
                                        {
                                            OFFSET   2.582190   0.000000   0.000000
                                        }
                                    }
                                }
                            }
                            JOINT LeftFinger1
                            {
                                OFFSET   8.364480   0.000000   3.252850
                                CHANNELS 3 Zrotation Xrotation Yrotation
                                JOINT LeftFinger11
                                {
                                    OFFSET   4.646930   0.000000   0.000000
                                    CHANNELS 3 Zrotation Xrotation Yrotation
                                    JOINT LeftFinger12
                                    {
                                        OFFSET   2.323460   0.000000   0.000000
                                        CHANNELS 3 Zrotation Xrotation Yrotation
                                        End Site
                                        {
                                            OFFSET   2.273050   0.000000   0.000000
                                        }
                                    }
                                }
                            }
                            JOINT LeftFinger2
                            {
                                OFFSET   8.364480   0.000016   1.078090
                                CHANNELS 3 Zrotation Xrotation Yrotation
                                JOINT LeftFinger21
                                {
                                    OFFSET   5.111620   0.000000   0.000000
                                    CHANNELS 3 Zrotation Xrotation Yrotation
                                    JOINT LeftFinger22
                                    {
                                        OFFSET   2.788160   0.000017   0.000000
                                        CHANNELS 3 Zrotation Xrotation Yrotation
                                        End Site
                                        {
                                            OFFSET   2.727660   0.000000   0.000000
                                        }
                                    }
                                }
                            }
                            JOINT LeftFinger3
                            {
                                OFFSET   7.899780   0.000015  -1.078090
                                CHANNELS 3 Zrotation Xrotation Yrotation
                                JOINT LeftFinger31
                                {
                                    OFFSET   4.646920   0.000000   0.000000
                                    CHANNELS 3 Zrotation Xrotation Yrotation
                                    JOINT LeftFinger32
                                    {
                                        OFFSET   2.323470   0.000000   0.000000
                                        CHANNELS 3 Zrotation Xrotation Yrotation
                                        End Site
                                        {
                                            OFFSET   2.273050   0.000000   0.000000
                                        }
                                    }
                                }
                            }
                            JOINT LeftFinger4
                            {
                                OFFSET   7.435090   0.000000  -3.252850
                                CHANNELS 3 Zrotation Xrotation Yrotation
                                JOINT LeftFinger41
                                {
                                    OFFSET   3.717550   0.000000   0.000000
                                    CHANNELS 3 Zrotation Xrotation Yrotation
                                    JOINT LeftFinger42
                                    {
                                        OFFSET   1.858760   0.000000   0.000000
                                        CHANNELS 3 Zrotation Xrotation Yrotation
                                        End Site
                                        {
                                            OFFSET   1.818440   0.000000   0.000000
                                        }
                                    }
                                }
                            }
                        }
                    }
                }
            }
            JOINT RightCollar
            {
                OFFSET  -3.911900  19.017000  -0.467062
                CHANNELS 3 Zrotation Xrotation Yrotation
                JOINT RightShoulder
                {
                    OFFSET -10.383700   0.000015   0.000000
                    CHANNELS 3 Zrotation Xrotation Yrotation
                    JOINT RightElbow
                    {
                        OFFSET -26.662100   0.001341   0.000385
                        CHANNELS 3 Zrotation Xrotation Yrotation
                        JOINT RightWrist
                        {
                            OFFSET -28.869000   0.000025  -0.000080
                            CHANNELS 3 Zrotation Xrotation Yrotation
                            JOINT RightFinger0
                            {
                                OFFSET  -2.044650  -2.323490   3.252850
                                CHANNELS 3 Zrotation Xrotation Yrotation
                                JOINT RightFinger01
                                {
                                    OFFSET  -3.088130   0.000000   0.000000
                                    CHANNELS 3 Zrotation Xrotation Yrotation
                                    JOINT RightFinger02
                                    {
                                        OFFSET  -2.639460   0.000000   0.000000
                                        CHANNELS 3 Zrotation Xrotation Yrotation
                                        End Site
                                        {
                                            OFFSET  -2.582190   0.000000   0.000000
                                        }
                                    }
                                }
                            }
                            JOINT RightFinger1
                            {
                                OFFSET  -8.364480   0.000000   3.252850
                                CHANNELS 3 Zrotation Xrotation Yrotation
                                JOINT RightFinger11
                                {
                                    OFFSET  -4.646930   0.000000   0.000000
                                    CHANNELS 3 Zrotation Xrotation Yrotation
                                    JOINT RightFinger12
                                    {
                                        OFFSET  -2.323470   0.000000   0.000000
                                        CHANNELS 3 Zrotation Xrotation Yrotation
                                        End Site
                                        {
                                            OFFSET  -2.273050   0.000000   0.000000
                                        }
                                    }
                                }
                            }
                            JOINT RightFinger2
                            {
                                OFFSET  -8.364480   0.000000   1.078090
                                CHANNELS 3 Zrotation Xrotation Yrotation
                                JOINT RightFinger21
                                {
                                    OFFSET  -5.111610   0.000000   0.000000
                                    CHANNELS 3 Zrotation Xrotation Yrotation
                                    JOINT RightFinger22
                                    {
                                        OFFSET  -2.788160   0.000000   0.000000
                                        CHANNELS 3 Zrotation Xrotation Yrotation
                                        End Site
                                        {
                                            OFFSET  -2.727660   0.000000   0.000000
                                        }
                                    }
                                }
                            }
                            JOINT RightFinger3
                            {
                                OFFSET  -7.899780   0.000000  -1.078090
                                CHANNELS 3 Zrotation Xrotation Yrotation
                                JOINT RightFinger31
                                {
                                    OFFSET  -4.646920   0.000000   0.000000
                                    CHANNELS 3 Zrotation Xrotation Yrotation
                                    JOINT RightFinger32
                                    {
                                        OFFSET  -2.323470   0.000000   0.000000
                                        CHANNELS 3 Zrotation Xrotation Yrotation
                                        End Site
                                        {
                                            OFFSET  -2.273050   0.000000   0.000000
                                        }
                                    }
                                }
                            }
                            JOINT RightFinger4
                            {
                                OFFSET  -7.435090   0.000000  -3.252850
                                CHANNELS 3 Zrotation Xrotation Yrotation
                                JOINT RightFinger41
                                {
                                    OFFSET  -3.717550   0.000000   0.000000
                                    CHANNELS 3 Zrotation Xrotation Yrotation
                                    JOINT RightFinger42
                                    {
                                        OFFSET  -1.858770   0.000000   0.000000
                                        CHANNELS 3 Zrotation Xrotation Yrotation
                                        End Site
                                        {
                                            OFFSET  -1.818440   0.000000   0.000000
                                        }
                                    }
                                }
                            }
                        }
                    }
                }
            }
        }
    }
    JOINT LeftHip
    {
        OFFSET   9.783010   0.000000   0.000000
        CHANNELS 3 Zrotation Xrotation Yrotation
        JOINT LeftKnee
        {
            OFFSET   0.000070 -41.789100   0.000028
            CHANNELS 3 Zrotation Xrotation Yrotation
            JOINT LeftAnkle
            {
                OFFSET   0.000087 -41.133200  -0.000100
                CHANNELS 3 Zrotation Xrotation Yrotation
                JOINT LeftToe
                {
                    OFFSET   0.000000  -6.358960  14.674500
                    CHANNELS 3 Zrotation Xrotation Yrotation
                    End Site
                    {
                        OFFSET   0.000000   0.000000   3.913200
                    }
                }
            }
        }
    }
    JOINT RightHip
    {
        OFFSET  -9.783020   0.000000   0.000000
        CHANNELS 3 Zrotation Xrotation Yrotation
        JOINT RightKnee
        {
            OFFSET   0.000044 -41.789100  -0.000870
            CHANNELS 3 Zrotation Xrotation Yrotation
            JOINT RightAnkle
            {
                OFFSET  -0.000090 -41.133200  -0.000245
                CHANNELS 3 Zrotation Xrotation Yrotation
                JOINT RightToe
                {
                    OFFSET   0.000000  -6.358960  14.674500
                    CHANNELS 3 Zrotation Xrotation Yrotation
                    End Site
                    {
                        OFFSET   0.000000   0.000000   3.913200
                    }
                }
            }
        }
    }
}
MOTION
Frames: 4
Frame Time:   0.016667
  0.419838  89.482400   1.986820  -3.637500 -18.703400   0.266850   0.733950  10.835100   2.393760   1.024940  21.691300   4.775280   1.259660   1.962310  -0.037289   2.076500   3.973140  -0.208455  -8.683350  -6.914700  -2.574190 -50.000500  32.894800 -40.815800  19.816200  -7.958270 -87.966600  16.904900 -35.028900   9.137690  51.354800  52.869400 -98.218100 -37.882900   0.000346   0.000342 -13.941500   0.000306  -0.002884 -51.520000  -1.961040   1.555720 -42.174800  -0.000207  -0.001404 -31.631100  -0.001744  -0.003527 -77.241100  -2.441690   0.550827 -77.253100   0.001485  -0.001438 -57.939800   0.001214  -0.000350 -88.996000  -5.004070   0.090182 -93.289300   0.001222  -0.002422 -69.966900  -0.001087   0.001110 -64.181500  -9.019070   4.336290 -96.785500  -0.001440  -0.001499 -64.459200   0.002599   0.001807  13.307400  -7.295640  15.122400  36.948400   8.833090  40.566800 -32.777600  -4.123870  35.907900   2.537010 -44.815900  12.574700 -42.995400  46.337200  87.274800  36.603900  -0.003676   0.000120  13.302000  -0.000178   0.001396  53.305700   1.630120   1.228890  43.627300   0.000663   0.001099  32.720500   0.001106  -0.000779  88.894700   0.000390   0.001895  88.894700  -0.004014  -0.000104  66.671000   0.000404   0.003535  60.156200  -6.038510  -3.454250  60.338600  -0.004678   0.003679  45.253900  -0.003634  -0.002049  84.314200  -9.951290  -0.986108 110.000000  -0.003039  -0.001807  79.999900   0.009247   0.003229   2.944120  21.717600   5.724540   1.088260  -0.000071   5.228300  -1.090850  -3.974650   2.097720   0.000000   0.000000   0.000000   5.456070  19.465000  -2.083080  -2.442550   3.991240  -8.144350   0.300041  -5.391200  -0.217724   0.000000   0.000000   0.000000
  0.428209  89.482300   2.002390  -3.602210 -18.770600   0.435484   0.724157  10.860400   2.458500   0.990533  21.741900   4.910740   1.271200   1.985290  -0.037385   2.094820   4.019570  -0.244833  -8.629610  -6.842380  -2.415230 -49.919400  34.212500 -41.183000  19.933300  -7.484730 -88.041900  17.108300 -34.933100   9.295170  51.130300  52.773900 -97.930500 -37.861200   0.000356   0.000350 -13.930700   0.000316  -0.002895 -51.343100  -1.989550   1.588500 -42.030800  -0.000189  -0.001417 -31.523100  -0.001751  -0.003496 -77.176700  -2.482600   0.562939 -77.189000   0.001482  -0.001414 -57.891900   0.001205  -0.000337 -88.996000  -5.004090   0.090207 -93.230900   0.001187  -0.002417 -69.923100  -0.001103   0.001107 -64.037200  -9.008240   4.359040 -96.571200  -0.001434  -0.001477 -64.316400   0.002577   0.001796  13.167000  -7.081510  15.013700  34.998800   9.879250  42.996000 -31.641800  -2.250420  34.303200   2.865910 -46.152500  13.985500 -43.218000  46.519300  87.580200  36.446200  -0.003652   0.000127  13.223100  -0.000172   0.001397  52.919200   1.902730   1.446760  43.319400   0.000679   0.001165  32.489600   0.001178  -0.000811  88.702800   0.000428   0.001854  88.702800  -0.003996  -0.000117  66.527000   0.000393   0.003525  59.857900  -6.055560  -3.505150  60.043400  -0.004693   0.003772  45.032500  -0.003641  -0.002118  84.254100  -9.950880  -0.997042 110.000000  -0.003054  -0.001781  80.000000   0.009328   0.003227   2.980870  21.751700   5.694330   1.101990   0.034837   5.190520  -1.086620  -3.993460   1.994820   0.000000   0.000000   0.000000   5.499460  19.521400  -2.087510  -2.435540   4.039210  -8.199030   0.286388  -5.433780  -0.322038  -0.000000   0.000000   0.000000
  0.436710  89.482100   2.011080  -3.568810 -18.827000   0.593223   0.717650  10.885800   2.508170   0.965893  21.792500   5.014580   1.276660   1.991050  -0.037462   2.104720   4.031190  -0.250032  -8.578220  -6.794270  -2.257190 -49.888400  35.345400 -41.550900  20.136500  -7.055090 -88.019000  17.377600 -34.898600   9.467150  50.907400  52.677400 -97.644800 -37.834000   0.000364   0.000355 -13.917000   0.000326  -0.002906 -51.146800  -2.020690   1.625420 -41.871000  -0.000170  -0.001430 -31.403300  -0.001757  -0.003465 -77.071600  -2.527590   0.578545 -77.084500   0.001478  -0.001390 -57.813500   0.001193  -0.000324 -88.996000  -5.004110   0.090229 -93.131400   0.001154  -0.002411 -69.848500  -0.001119   0.001104 -63.897900  -8.997650   4.380990 -96.364200  -0.001429  -0.001458 -64.178600   0.002553   0.001788  12.960300  -6.829150  14.861500  33.037900  10.923100  45.446800 -30.308700  -0.920275  32.677700   2.949030 -47.265500  15.110200 -43.438200  46.798100  87.882300  36.354300  -0.003604   0.000131  13.177200  -0.000166   0.001398  52.603400   2.063980   1.578450  43.063600   0.000694   0.001229  32.297700   0.001247  -0.000841  88.308200   0.000494   0.001808  88.308200  -0.003979  -0.000132  66.231100   0.000382   0.003513  59.634800  -6.068450  -3.543460  59.822700  -0.004710   0.003865  44.867000  -0.003651  -0.002187  84.033500  -9.948080  -1.035630 110.000000  -0.003065  -0.001750  80.000000   0.009408   0.003224   3.020260  21.776600   5.670740   1.113450   0.074713   5.153820  -1.084790  -4.017430   1.893510  -0.000000   0.000000   0.000000   5.536520  19.569600  -2.094900  -2.428620   4.081880  -8.237090   0.275340  -5.475080  -0.416185  -0.000000   0.000000   0.000000
  0.444609  89.481700   2.010810  -3.528430 -18.871900   0.746439   0.718055  10.912800   2.540390   0.958911  21.846700   5.081160   1.272890   1.986950  -0.037520   2.099960   4.023270  -0.184437  -8.543670  -6.767440  -2.061340 -49.960500  36.342000 -41.883400  20.279800  -6.682070 -87.890400  17.597000 -34.916500   9.629890  51.164200  52.857200 -97.964600 -37.642500   0.000373   0.000361 -13.821200   0.000335  -0.002898 -50.818000  -2.072400   1.687810 -41.603400  -0.000143  -0.001442 -31.202600  -0.001755  -0.003437 -76.770000  -2.601680   0.611073 -76.783900   0.001467  -0.001367 -57.588000   0.001171  -0.000305 -88.995900  -5.004110   0.090251 -92.823500   0.001142  -0.002421 -69.617600  -0.001159   0.001089 -63.686900  -8.981520   4.414190 -96.050600  -0.001427  -0.001436 -63.969700   0.002520   0.001783  12.774800  -6.601720  14.794600  30.828800  12.148700  47.948200 -28.804800  -0.579823  30.758700   2.055580 -47.493500  15.240900 -43.368700  47.020100  87.796700  36.433900  -0.003544   0.000129  13.216900  -0.000152   0.001410  52.503400   2.240000   1.712360  42.984600   0.000719   0.001286  32.238400   0.001308  -0.000862  87.708900   0.000550   0.001757  87.709000  -0.003970  -0.000151  65.781600   0.000376   0.003496  59.551800  -6.073020  -3.558120  59.740600  -0.004728   0.003945  44.805400  -0.003660  -0.002262  83.505200  -9.938470  -1.126100 110.000000  -0.003068  -0.001715  80.000000   0.009477   0.003222   3.062210  21.792200   5.647020   1.118130   0.116139   5.122150  -1.083780  -4.043550   1.789550  -0.000000   0.000000   0.000000   5.570300  19.608200  -2.143050  -2.432370   4.116020  -8.214410   0.265616  -5.512730  -0.520169   0.000000   0.000000   0.000000
